<svg width="153" height="30" viewBox="0 0 153 30" fill="none" xmlns="http://www.w3.org/2000/svg">
<path d="M4.85277 12.6341C4.85277 12.6341 3.62636 9.21278 7.43469 8.05082C7.43469 8.05082 8.27382 4.43583 11.8885 5.08136C11.8885 5.08136 14.0186 1.85369 17.3751 4.37127C17.3751 4.37127 20.5379 1.78914 22.9262 5.08136C22.9262 5.08136 26.4983 4.44099 27.2942 8.02113C27.2942 8.02113 30.7985 9.471 29.767 12.6341H4.85277Z" stroke="#477048" stroke-width="0.75" stroke-miterlimit="10"/>
<path d="M4.18469 12.6341H30.1504C30.2266 12.6464 30.2924 12.669 30.3493 12.6987C31.0096 13.0434 30.8146 14.4758 30.8011 14.5707C30.8011 14.5707 30.4783 26.965 17.8915 26.965C15.3489 26.965 12.7444 26.6455 10.3884 25.6436C9.15812 25.1207 8.00465 24.4009 7.03836 23.4733C5.68156 22.1713 5.08579 20.6155 4.80371 19.9435C4.45838 19.1217 4.2273 18.3155 4.07884 17.7978C3.88196 17.1122 3.78514 16.6403 3.59021 15.6965C3.59021 15.6965 3.17581 13.6373 3.5844 12.973C3.71801 12.7555 3.92844 12.6341 4.18534 12.6341H4.18469Z" stroke="#477048" stroke-width="0.75" stroke-miterlimit="10"/>
<path d="M3.85229 16.6364H30.5287" stroke="#477048" stroke-width="0.75" stroke-miterlimit="10"/>
<path d="M3.65869 15.6472H30.7043" stroke="#477048" stroke-width="0.7545" stroke-miterlimit="10"/>
<path d="M11.125 25.95C11.3715 26.4971 11.8166 27.2808 12.6089 27.916C13.8734 28.9295 15.2385 28.937 17.1985 28.9478C19.1547 28.9587 20.4837 28.9661 21.7056 27.9838C22.4695 27.3703 22.8934 26.6103 23.125 26.0856" stroke="#477048" stroke-width="0.75" stroke-miterlimit="10"/>
<path d="M22.0548 20.5096C22.4648 20.5096 22.7971 20.1773 22.7971 19.7673C22.7971 19.3573 22.4648 19.0249 22.0548 19.0249C21.6448 19.0249 21.3125 19.3573 21.3125 19.7673C21.3125 20.1773 21.6448 20.5096 22.0548 20.5096Z" fill="#477048" stroke="#477048" stroke-width="0.75" stroke-miterlimit="10"/>
<path d="M12.5018 20.5096C12.9118 20.5096 13.2441 20.1773 13.2441 19.7673C13.2441 19.3573 12.9118 19.0249 12.5018 19.0249C12.0919 19.0249 11.7595 19.3573 11.7595 19.7673C11.7595 20.1773 12.0919 20.5096 12.5018 20.5096Z" fill="#477048" stroke="#477048" stroke-width="0.75" stroke-miterlimit="10"/>
<path d="M15.8259 19.7995C15.9356 19.6801 16.1125 19.5755 17.375 19.6059C18.3943 19.6304 18.5911 19.7059 18.7306 19.8641C18.93 20.0907 18.9281 20.3928 18.9242 20.5742C18.9081 21.3553 18.34 22.6102 17.3105 22.6257C16.2887 22.6412 15.691 21.4224 15.6323 20.6387C15.6168 20.4373 15.5884 20.0578 15.8259 19.7995Z" stroke="#477048" stroke-width="0.75" stroke-miterlimit="10"/>
<path d="M20.312 7.40528C20.5081 7.40528 20.6671 7.24632 20.6671 7.05023C20.6671 6.85415 20.5081 6.69519 20.312 6.69519C20.116 6.69519 19.957 6.85415 19.957 7.05023C19.957 7.24632 20.116 7.40528 20.312 7.40528Z" fill="#477048" stroke="#477048" stroke-width="0.75" stroke-miterlimit="10"/>
<path d="M13.5346 11.2139C13.695 11.2139 13.8251 11.0839 13.8251 10.9235C13.8251 10.763 13.695 10.633 13.5346 10.633C13.3742 10.633 13.2441 10.763 13.2441 10.9235C13.2441 11.0839 13.3742 11.2139 13.5346 11.2139Z" fill="#477048" stroke="#477048" stroke-width="0.75" stroke-miterlimit="10"/>
<path d="M25.1532 11.0203C25.3849 11.0203 25.5728 10.8324 25.5728 10.6007C25.5728 10.369 25.3849 10.1811 25.1532 10.1811C24.9215 10.1811 24.7336 10.369 24.7336 10.6007C24.7336 10.8324 24.9215 11.0203 25.1532 11.0203Z" fill="#477048" stroke="#477048" stroke-width="0.75" stroke-miterlimit="10"/>
<path d="M10.4684 7.08253C10.611 7.08253 10.7266 6.96692 10.7266 6.82431C10.7266 6.68171 10.611 6.5661 10.4684 6.5661C10.3258 6.5661 10.2102 6.68171 10.2102 6.82431C10.2102 6.96692 10.3258 7.08253 10.4684 7.08253Z" fill="#477048" stroke="#477048" stroke-width="0.75" stroke-miterlimit="10"/>
<path d="M6.1703 8.62019C6.1703 8.62019 0.0117719 2.75744 1.36728 1.40182C2.72279 0.0461982 7.95893 6.82431 7.95893 6.82431" stroke="#477048" stroke-width="0.8025" stroke-miterlimit="10"/>
<path d="M15.8989 21.5728C15.8989 21.5728 17.0666 20.8285 18.6732 21.5728" stroke="#477048" stroke-width="0.75" stroke-miterlimit="10"/>
<path d="M12.1748 27.6C12.1748 27.6 16.8078 28.6125 22.2248 27.6" stroke="#477048" stroke-width="0.75" stroke-miterlimit="10"/>
<path d="M40.0733 16.8C39.9533 16.8933 39.8733 16.9867 39.8333 17.08C39.7933 17.16 39.7733 17.24 39.7733 17.32V21.2C39.7733 21.44 39.7199 21.6133 39.6133 21.72C39.5199 21.8267 39.3866 21.88 39.2133 21.88C39.0133 21.88 38.8666 21.8267 38.7733 21.72C38.6933 21.6133 38.6533 21.44 38.6533 21.2V17.42C38.6533 17.3133 38.6333 17.2133 38.5933 17.12C38.5533 17.0133 38.4933 16.9 38.4133 16.78L36.0333 13.98C35.8733 13.82 35.7866 13.66 35.7733 13.5C35.7599 13.34 35.8266 13.1867 35.9733 13.04C36.0933 12.92 36.2199 12.8667 36.3533 12.88C36.4866 12.8933 36.6199 12.9667 36.7533 13.1L39.0533 15.8C39.1199 15.9067 39.1799 15.9733 39.2333 16C39.2999 16.0133 39.3666 16 39.4333 15.96L42.9933 13.26C43.1666 13.1133 43.3333 13.04 43.4933 13.04C43.6533 13.04 43.7933 13.1133 43.9133 13.26C44.0199 13.4067 44.0466 13.5533 43.9933 13.7C43.9399 13.8467 43.8133 14 43.6133 14.16L40.0733 16.8ZM48.093 12.44C48.3063 12.32 48.493 12.2667 48.653 12.28C48.813 12.28 48.933 12.34 49.013 12.46C49.0796 12.54 49.113 12.62 49.113 12.7C49.1263 12.78 49.1196 12.8533 49.093 12.92C49.5463 13.0933 49.953 13.3133 50.313 13.58C50.6863 13.8467 51.013 14.1533 51.293 14.5C51.573 14.9 51.7863 15.3467 51.933 15.84C52.0796 16.32 52.153 16.86 52.153 17.46C52.153 18.14 52.053 18.7533 51.853 19.3C51.6663 19.8467 51.393 20.3133 51.033 20.7C50.6463 21.1 50.2196 21.4 49.753 21.6C49.2996 21.7867 48.7996 21.88 48.253 21.88C47.773 21.88 47.333 21.7933 46.933 21.62C46.5463 21.4467 46.1996 21.1733 45.893 20.8C45.573 20.44 45.3396 20 45.193 19.48C45.0463 18.96 44.973 18.3533 44.973 17.66C44.973 17.0467 45.0396 16.4733 45.173 15.94C45.3196 15.4067 45.5463 14.9133 45.853 14.46C46.133 14.02 46.4596 13.6333 46.833 13.3C47.2196 12.9667 47.6396 12.68 48.093 12.44ZM48.193 13.62C47.8996 13.82 47.633 14.0533 47.393 14.32C47.153 14.5733 46.9463 14.86 46.773 15.18C46.533 15.5933 46.3596 16.0067 46.253 16.42C46.1463 16.8333 46.093 17.2467 46.093 17.66C46.093 18.22 46.1396 18.7 46.233 19.1C46.3396 19.5 46.4996 19.82 46.713 20.06C46.913 20.34 47.1396 20.54 47.393 20.66C47.6463 20.7667 47.933 20.82 48.253 20.82C48.613 20.82 48.953 20.7533 49.273 20.62C49.593 20.4867 49.8996 20.26 50.193 19.94C50.4596 19.66 50.6663 19.3133 50.813 18.9C50.9596 18.4733 51.033 17.9933 51.033 17.46C51.033 17.0067 50.973 16.58 50.853 16.18C50.7463 15.78 50.5796 15.4133 50.353 15.08C50.1263 14.76 49.853 14.4933 49.533 14.28C49.2263 14.0533 48.873 13.8667 48.473 13.72C48.433 13.72 48.3996 13.72 48.373 13.72C48.3463 13.7067 48.3196 13.6933 48.293 13.68C48.2663 13.6667 48.2463 13.66 48.233 13.66C48.2196 13.6467 48.2063 13.6333 48.193 13.62ZM56.6477 12.44C56.861 12.32 57.0477 12.2667 57.2077 12.28C57.3677 12.28 57.4877 12.34 57.5677 12.46C57.6343 12.54 57.6677 12.62 57.6677 12.7C57.681 12.78 57.6743 12.8533 57.6477 12.92C58.101 13.0933 58.5077 13.3133 58.8677 13.58C59.241 13.8467 59.5677 14.1533 59.8477 14.5C60.1277 14.9 60.341 15.3467 60.4877 15.84C60.6343 16.32 60.7077 16.86 60.7077 17.46C60.7077 18.14 60.6077 18.7533 60.4077 19.3C60.221 19.8467 59.9477 20.3133 59.5877 20.7C59.201 21.1 58.7743 21.4 58.3077 21.6C57.8543 21.7867 57.3543 21.88 56.8077 21.88C56.3277 21.88 55.8877 21.7933 55.4877 21.62C55.101 21.4467 54.7543 21.1733 54.4477 20.8C54.1277 20.44 53.8943 20 53.7477 19.48C53.601 18.96 53.5277 18.3533 53.5277 17.66C53.5277 17.0467 53.5943 16.4733 53.7277 15.94C53.8743 15.4067 54.101 14.9133 54.4077 14.46C54.6877 14.02 55.0143 13.6333 55.3877 13.3C55.7743 12.9667 56.1943 12.68 56.6477 12.44ZM56.7477 13.62C56.4543 13.82 56.1877 14.0533 55.9477 14.32C55.7077 14.5733 55.501 14.86 55.3277 15.18C55.0877 15.5933 54.9143 16.0067 54.8077 16.42C54.701 16.8333 54.6477 17.2467 54.6477 17.66C54.6477 18.22 54.6943 18.7 54.7877 19.1C54.8943 19.5 55.0543 19.82 55.2677 20.06C55.4677 20.34 55.6943 20.54 55.9477 20.66C56.201 20.7667 56.4877 20.82 56.8077 20.82C57.1677 20.82 57.5077 20.7533 57.8277 20.62C58.1477 20.4867 58.4543 20.26 58.7477 19.94C59.0143 19.66 59.221 19.3133 59.3677 18.9C59.5143 18.4733 59.5877 17.9933 59.5877 17.46C59.5877 17.0067 59.5277 16.58 59.4077 16.18C59.301 15.78 59.1343 15.4133 58.9077 15.08C58.681 14.76 58.4077 14.4933 58.0877 14.28C57.781 14.0533 57.4277 13.8667 57.0277 13.72C56.9877 13.72 56.9543 13.72 56.9277 13.72C56.901 13.7067 56.8743 13.6933 56.8477 13.68C56.821 13.6667 56.801 13.66 56.7877 13.66C56.7743 13.6467 56.761 13.6333 56.7477 13.62ZM67.8023 13.72C67.789 13.5067 67.829 13.34 67.9223 13.22C68.029 13.0867 68.1823 13.02 68.3823 13.02C68.5557 13.02 68.689 13.0867 68.7823 13.22C68.8757 13.34 68.929 13.5067 68.9423 13.72L69.2623 20.38C69.2623 20.62 69.2157 20.8133 69.1223 20.96C69.029 21.1067 68.8957 21.2 68.7223 21.24C68.4823 21.32 68.269 21.32 68.0823 21.24C67.909 21.1467 67.7423 21 67.5823 20.8L63.2023 14.96L63.5223 21.12C63.5223 21.36 63.469 21.54 63.3623 21.66C63.269 21.7667 63.1357 21.82 62.9623 21.82C62.7757 21.82 62.629 21.7667 62.5223 21.66C62.429 21.5533 62.3823 21.38 62.3823 21.14L62.0223 13.62C61.9957 13.42 62.0223 13.2667 62.1023 13.16C62.1957 13.04 62.3357 12.96 62.5223 12.92C62.6823 12.9067 62.829 12.9333 62.9623 13C63.109 13.0667 63.2423 13.1733 63.3623 13.32L68.0823 19.74L67.8023 13.72ZM76.3316 16.5H77.5716C78.0382 16.5 78.4382 16.4733 78.7716 16.42C79.1182 16.3533 79.4049 16.2467 79.6316 16.1C79.8316 15.98 79.9782 15.82 80.0716 15.62C80.1782 15.42 80.2316 15.2 80.2316 14.96C80.2316 14.7733 80.1849 14.6 80.0916 14.44C79.9982 14.2667 79.8716 14.1067 79.7116 13.96C79.5116 13.84 79.2316 13.7667 78.8716 13.74C78.5249 13.7133 78.0849 13.7333 77.5516 13.8L76.6716 13.94C76.5516 13.9667 76.4649 14.02 76.4116 14.1C76.3582 14.18 76.3316 14.28 76.3316 14.4V16.5ZM75.2116 14.4C75.2116 13.9867 75.3249 13.6533 75.5516 13.4C75.7916 13.1467 76.1582 12.98 76.6516 12.9L77.5316 12.76C78.1982 12.6533 78.7782 12.6333 79.2716 12.7C79.7649 12.7667 80.1582 12.92 80.4516 13.16C80.7316 13.4 80.9516 13.6733 81.1116 13.98C81.2849 14.2733 81.3716 14.6 81.3716 14.96C81.3716 15.36 81.2849 15.7133 81.1116 16.02C80.9382 16.3133 80.7049 16.58 80.4116 16.82C80.0916 17.06 79.7049 17.2467 79.2516 17.38C78.7982 17.5 78.2916 17.56 77.7316 17.56L81.2116 20.84C81.3582 21 81.4382 21.16 81.4516 21.32C81.4782 21.4667 81.4316 21.6 81.3116 21.72C81.1782 21.88 81.0316 21.9467 80.8716 21.92C80.7249 21.8933 80.5716 21.8 80.4116 21.64L76.3316 17.58V17.72C76.3316 18.44 76.3382 19.0867 76.3516 19.66C76.3649 20.2333 76.4049 20.74 76.4716 21.18C76.5116 21.42 76.4849 21.6 76.3916 21.72C76.3116 21.8267 76.1849 21.88 76.0116 21.88C75.8249 21.88 75.6782 21.8267 75.5716 21.72C75.4649 21.6133 75.3982 21.44 75.3716 21.2C75.3049 20.76 75.2582 20.2533 75.2316 19.68C75.2182 19.0933 75.2116 18.44 75.2116 17.72V14.4ZM86.6869 13.94L84.1669 14.06C84.0069 14.0733 83.9002 14.1333 83.8469 14.24C83.7935 14.3467 83.7869 14.4933 83.8269 14.68C83.8669 15.0267 83.9002 15.38 83.9269 15.74C83.9669 16.1 84.0069 16.4733 84.0469 16.86C84.6735 16.7267 85.3335 16.62 86.0269 16.54C86.7202 16.4467 87.4469 16.4 88.2069 16.4C88.4335 16.4 88.6069 16.4533 88.7269 16.56C88.8602 16.6533 88.9269 16.7867 88.9269 16.96C88.9269 17.1333 88.8602 17.26 88.7269 17.34C88.6069 17.42 88.4402 17.46 88.2269 17.46C87.4935 17.46 86.7869 17.5067 86.1069 17.6C85.4269 17.6933 84.7735 17.82 84.1469 17.98C84.1602 18.38 84.1669 18.8 84.1669 19.24C84.1802 19.6667 84.1869 20.1133 84.1869 20.58C84.1869 20.66 84.2002 20.7133 84.2269 20.74C84.2535 20.7667 84.3002 20.78 84.3669 20.78C85.2335 20.78 85.9735 20.7467 86.5869 20.68C87.2135 20.6133 87.7202 20.5 88.1069 20.34C88.3069 20.2467 88.4802 20.22 88.6269 20.26C88.7735 20.2867 88.8935 20.36 88.9869 20.48C89.0802 20.64 89.1002 20.78 89.0469 20.9C88.9935 21.02 88.8735 21.12 88.6869 21.2C88.1802 21.4267 87.5669 21.5933 86.8469 21.7C86.1269 21.7933 85.3002 21.84 84.3669 21.84C83.9135 21.84 83.5735 21.74 83.3469 21.54C83.1335 21.34 83.0402 21.02 83.0669 20.58C83.0669 19.42 83.0402 18.38 82.9869 17.46C82.9469 16.54 82.8735 15.7333 82.7669 15.04C82.6469 14.44 82.6469 13.9867 82.7669 13.68C82.8869 13.36 83.1269 13.18 83.4869 13.14L86.6069 12.92C86.8202 12.9067 86.9869 12.9333 87.1069 13C87.2269 13.0667 87.3069 13.1733 87.3469 13.32C87.3869 13.52 87.3469 13.6733 87.2269 13.78C87.1069 13.8867 86.9269 13.94 86.6869 13.94ZM93.5059 21.84C93.0659 21.84 92.6593 21.76 92.2859 21.6C91.9126 21.44 91.5659 21.1933 91.2459 20.86C90.9126 20.54 90.6659 20.14 90.5059 19.66C90.3459 19.18 90.2659 18.62 90.2659 17.98C90.2659 17.34 90.3326 16.7533 90.4659 16.22C90.6126 15.6867 90.8459 15.1933 91.1659 14.74C91.4593 14.3133 91.8193 13.9867 92.2459 13.76C92.6859 13.5333 93.1859 13.42 93.7459 13.42C94.3059 13.42 94.8126 13.5533 95.2659 13.82C95.7326 14.0867 96.1459 14.4733 96.5059 14.98C96.6393 15.1933 96.7126 15.38 96.7259 15.54C96.7393 15.7 96.6859 15.8267 96.5659 15.92C96.4059 16.0667 96.2459 16.12 96.0859 16.08C95.9393 16.0267 95.7993 15.8867 95.6659 15.66C95.3993 15.26 95.1059 14.9667 94.7859 14.78C94.4659 14.58 94.1193 14.48 93.7459 14.48C93.3459 14.48 92.9926 14.58 92.6859 14.78C92.3926 14.9667 92.1526 15.24 91.9659 15.6C91.7659 15.9733 91.6193 16.36 91.5259 16.76C91.4326 17.16 91.3859 17.5667 91.3859 17.98C91.3859 18.5267 91.4326 18.9867 91.5259 19.36C91.6326 19.7333 91.8059 20.0133 92.0459 20.2C92.2726 20.4133 92.5059 20.5667 92.7459 20.66C92.9859 20.74 93.2393 20.78 93.5059 20.78C93.9459 20.78 94.3459 20.7133 94.7059 20.58C95.0793 20.4333 95.3926 20.2 95.6459 19.88C95.7793 19.72 95.9126 19.6267 96.0459 19.6C96.1926 19.56 96.3326 19.6 96.4659 19.72C96.6126 19.84 96.6859 19.9733 96.6859 20.12C96.6859 20.2667 96.6126 20.42 96.4659 20.58C96.1059 21.02 95.6793 21.34 95.1859 21.54C94.6926 21.74 94.1326 21.84 93.5059 21.84ZM98.3013 13.46C98.2613 13.2867 98.2879 13.1533 98.3813 13.06C98.4746 12.9533 98.6213 12.9 98.8213 12.9C98.9946 12.9 99.1346 12.98 99.2413 13.14C99.3479 13.2867 99.4079 13.5 99.4213 13.78L99.7013 21.14C99.7013 21.38 99.6546 21.56 99.5613 21.68C99.4679 21.7867 99.3346 21.84 99.1613 21.84C98.9613 21.84 98.8146 21.7867 98.7213 21.68C98.6279 21.5733 98.5813 21.4 98.5813 21.16L98.3013 13.46ZM102.358 14.48L102.538 17.06L103.198 17.12C103.558 17.16 103.892 17.1533 104.198 17.1C104.518 17.0467 104.805 16.9333 105.058 16.76C105.298 16.6133 105.478 16.42 105.598 16.18C105.718 15.94 105.778 15.6533 105.778 15.32C105.778 15.04 105.732 14.7933 105.638 14.58C105.545 14.3533 105.418 14.18 105.258 14.06C105.072 13.94 104.858 13.86 104.618 13.82C104.378 13.7667 104.105 13.74 103.798 13.74L102.898 13.82C102.698 13.8333 102.552 13.9 102.458 14.02C102.378 14.1267 102.345 14.28 102.358 14.48ZM102.638 18.14L102.858 21.48C102.872 21.72 102.825 21.9 102.718 22.02C102.612 22.1267 102.458 22.16 102.258 22.12C102.098 22.1067 101.972 22.04 101.878 21.92C101.798 21.8 101.752 21.62 101.738 21.38L101.258 14.5C101.192 13.98 101.265 13.58 101.478 13.3C101.705 13.02 102.058 12.8533 102.538 12.8L103.778 12.7C104.218 12.66 104.618 12.6933 104.978 12.8C105.352 12.9067 105.692 13.0667 105.998 13.28C106.278 13.52 106.498 13.8067 106.658 14.14C106.818 14.4733 106.898 14.8667 106.898 15.32C106.898 15.7733 106.805 16.1867 106.618 16.56C106.432 16.92 106.165 17.2333 105.818 17.5C105.458 17.7933 105.045 18 104.578 18.12C104.125 18.2267 103.618 18.24 103.058 18.16L102.638 18.14ZM112.234 13.94L109.714 14.06C109.554 14.0733 109.447 14.1333 109.394 14.24C109.34 14.3467 109.334 14.4933 109.374 14.68C109.414 15.0267 109.447 15.38 109.474 15.74C109.514 16.1 109.554 16.4733 109.594 16.86C110.22 16.7267 110.88 16.62 111.574 16.54C112.267 16.4467 112.994 16.4 113.754 16.4C113.98 16.4 114.154 16.4533 114.274 16.56C114.407 16.6533 114.474 16.7867 114.474 16.96C114.474 17.1333 114.407 17.26 114.274 17.34C114.154 17.42 113.987 17.46 113.774 17.46C113.04 17.46 112.334 17.5067 111.654 17.6C110.974 17.6933 110.32 17.82 109.694 17.98C109.707 18.38 109.714 18.8 109.714 19.24C109.727 19.6667 109.734 20.1133 109.734 20.58C109.734 20.66 109.747 20.7133 109.774 20.74C109.8 20.7667 109.847 20.78 109.914 20.78C110.78 20.78 111.52 20.7467 112.134 20.68C112.76 20.6133 113.267 20.5 113.654 20.34C113.854 20.2467 114.027 20.22 114.174 20.26C114.32 20.2867 114.44 20.36 114.534 20.48C114.627 20.64 114.647 20.78 114.594 20.9C114.54 21.02 114.42 21.12 114.234 21.2C113.727 21.4267 113.114 21.5933 112.394 21.7C111.674 21.7933 110.847 21.84 109.914 21.84C109.46 21.84 109.12 21.74 108.894 21.54C108.68 21.34 108.587 21.02 108.614 20.58C108.614 19.42 108.587 18.38 108.534 17.46C108.494 16.54 108.42 15.7333 108.314 15.04C108.194 14.44 108.194 13.9867 108.314 13.68C108.434 13.36 108.674 13.18 109.034 13.14L112.154 12.92C112.367 12.9067 112.534 12.9333 112.654 13C112.774 13.0667 112.854 13.1733 112.894 13.32C112.934 13.52 112.894 13.6733 112.774 13.78C112.654 13.8867 112.474 13.94 112.234 13.94ZM123.487 21.72H121.287C121.087 21.72 120.941 21.6667 120.847 21.56C120.767 21.4533 120.727 21.28 120.727 21.04C120.727 19.6267 120.667 18.3533 120.547 17.22C120.441 16.0733 120.287 15.06 120.087 14.18C120.007 13.94 119.994 13.7533 120.047 13.62C120.114 13.4867 120.227 13.4 120.387 13.36L122.027 13C122.547 12.8667 123.041 12.8333 123.507 12.9C123.974 12.9533 124.407 13.1 124.807 13.34C125.194 13.5933 125.487 13.88 125.687 14.2C125.887 14.52 125.987 14.8733 125.987 15.26C125.987 15.58 125.921 15.8667 125.787 16.12C125.654 16.36 125.467 16.5667 125.227 16.74C125.321 16.78 125.421 16.8267 125.527 16.88C125.647 16.92 125.767 16.9667 125.887 17.02C126.314 17.2733 126.641 17.5867 126.867 17.96C127.107 18.32 127.227 18.7467 127.227 19.24C127.227 19.5867 127.154 19.9067 127.007 20.2C126.874 20.48 126.681 20.74 126.427 20.98C126.174 21.2333 125.801 21.42 125.307 21.54C124.814 21.66 124.207 21.72 123.487 21.72ZM121.827 20.66H123.667C124.107 20.66 124.487 20.6333 124.807 20.58C125.127 20.5133 125.381 20.4133 125.567 20.28C125.727 20.16 125.854 20.0133 125.947 19.84C126.041 19.6533 126.087 19.4533 126.087 19.24C126.087 18.8933 126.007 18.6 125.847 18.36C125.701 18.1067 125.481 17.9133 125.187 17.78C124.867 17.66 124.521 17.5933 124.147 17.58C123.787 17.5667 123.387 17.6 122.947 17.68L121.747 17.92C121.747 18.1467 121.747 18.3733 121.747 18.6C121.761 18.8133 121.774 19.0333 121.787 19.26C121.787 19.4867 121.787 19.72 121.787 19.96C121.801 20.1867 121.814 20.42 121.827 20.66ZM122.767 16.66C123.487 16.5133 124.027 16.3267 124.387 16.1C124.747 15.8733 124.927 15.6 124.927 15.28C124.927 15.04 124.861 14.8267 124.727 14.64C124.594 14.44 124.394 14.28 124.127 14.16C123.847 14.04 123.554 13.9733 123.247 13.96C122.954 13.9333 122.641 13.96 122.307 14.04L121.247 14.28C121.327 14.6667 121.394 15.0733 121.447 15.5C121.514 15.9267 121.581 16.38 121.647 16.86H121.667L122.767 16.66ZM131.706 12.44C131.92 12.32 132.106 12.2667 132.266 12.28C132.426 12.28 132.546 12.34 132.626 12.46C132.693 12.54 132.726 12.62 132.726 12.7C132.74 12.78 132.733 12.8533 132.706 12.92C133.16 13.0933 133.566 13.3133 133.926 13.58C134.3 13.8467 134.626 14.1533 134.906 14.5C135.186 14.9 135.4 15.3467 135.546 15.84C135.693 16.32 135.766 16.86 135.766 17.46C135.766 18.14 135.666 18.7533 135.466 19.3C135.28 19.8467 135.006 20.3133 134.646 20.7C134.26 21.1 133.833 21.4 133.366 21.6C132.913 21.7867 132.413 21.88 131.866 21.88C131.386 21.88 130.946 21.7933 130.546 21.62C130.16 21.4467 129.813 21.1733 129.506 20.8C129.186 20.44 128.953 20 128.806 19.48C128.66 18.96 128.586 18.3533 128.586 17.66C128.586 17.0467 128.653 16.4733 128.786 15.94C128.933 15.4067 129.16 14.9133 129.466 14.46C129.746 14.02 130.073 13.6333 130.446 13.3C130.833 12.9667 131.253 12.68 131.706 12.44ZM131.806 13.62C131.513 13.82 131.246 14.0533 131.006 14.32C130.766 14.5733 130.56 14.86 130.386 15.18C130.146 15.5933 129.973 16.0067 129.866 16.42C129.76 16.8333 129.706 17.2467 129.706 17.66C129.706 18.22 129.753 18.7 129.846 19.1C129.953 19.5 130.113 19.82 130.326 20.06C130.526 20.34 130.753 20.54 131.006 20.66C131.26 20.7667 131.546 20.82 131.866 20.82C132.226 20.82 132.566 20.7533 132.886 20.62C133.206 20.4867 133.513 20.26 133.806 19.94C134.073 19.66 134.28 19.3133 134.426 18.9C134.573 18.4733 134.646 17.9933 134.646 17.46C134.646 17.0067 134.586 16.58 134.466 16.18C134.36 15.78 134.193 15.4133 133.966 15.08C133.74 14.76 133.466 14.4933 133.146 14.28C132.84 14.0533 132.486 13.8667 132.086 13.72C132.046 13.72 132.013 13.72 131.986 13.72C131.96 13.7067 131.933 13.6933 131.906 13.68C131.88 13.6667 131.86 13.66 131.846 13.66C131.833 13.6467 131.82 13.6333 131.806 13.62ZM140.261 12.44C140.474 12.32 140.661 12.2667 140.821 12.28C140.981 12.28 141.101 12.34 141.181 12.46C141.248 12.54 141.281 12.62 141.281 12.7C141.294 12.78 141.288 12.8533 141.261 12.92C141.714 13.0933 142.121 13.3133 142.481 13.58C142.854 13.8467 143.181 14.1533 143.461 14.5C143.741 14.9 143.954 15.3467 144.101 15.84C144.248 16.32 144.321 16.86 144.321 17.46C144.321 18.14 144.221 18.7533 144.021 19.3C143.834 19.8467 143.561 20.3133 143.201 20.7C142.814 21.1 142.388 21.4 141.921 21.6C141.468 21.7867 140.968 21.88 140.421 21.88C139.941 21.88 139.501 21.7933 139.101 21.62C138.714 21.4467 138.368 21.1733 138.061 20.8C137.741 20.44 137.508 20 137.361 19.48C137.214 18.96 137.141 18.3533 137.141 17.66C137.141 17.0467 137.208 16.4733 137.341 15.94C137.488 15.4067 137.714 14.9133 138.021 14.46C138.301 14.02 138.628 13.6333 139.001 13.3C139.388 12.9667 139.808 12.68 140.261 12.44ZM140.361 13.62C140.068 13.82 139.801 14.0533 139.561 14.32C139.321 14.5733 139.114 14.86 138.941 15.18C138.701 15.5933 138.528 16.0067 138.421 16.42C138.314 16.8333 138.261 17.2467 138.261 17.66C138.261 18.22 138.308 18.7 138.401 19.1C138.508 19.5 138.668 19.82 138.881 20.06C139.081 20.34 139.308 20.54 139.561 20.66C139.814 20.7667 140.101 20.82 140.421 20.82C140.781 20.82 141.121 20.7533 141.441 20.62C141.761 20.4867 142.068 20.26 142.361 19.94C142.628 19.66 142.834 19.3133 142.981 18.9C143.128 18.4733 143.201 17.9933 143.201 17.46C143.201 17.0067 143.141 16.58 143.021 16.18C142.914 15.78 142.748 15.4133 142.521 15.08C142.294 14.76 142.021 14.4933 141.701 14.28C141.394 14.0533 141.041 13.8667 140.641 13.72C140.601 13.72 140.568 13.72 140.541 13.72C140.514 13.7067 140.488 13.6933 140.461 13.68C140.434 13.6667 140.414 13.66 140.401 13.66C140.388 13.6467 140.374 13.6333 140.361 13.62ZM147.156 17.64C147.702 17.12 148.302 16.5933 148.956 16.06C149.622 15.5133 150.342 14.9667 151.116 14.42C151.302 14.2867 151.469 14.22 151.616 14.22C151.762 14.2067 151.882 14.26 151.976 14.38C152.082 14.5533 152.109 14.72 152.056 14.88C152.002 15.04 151.876 15.1867 151.676 15.32C151.169 15.68 150.682 16.0467 150.216 16.42C149.749 16.7933 149.296 17.1667 148.856 17.54C149.416 18.02 149.969 18.58 150.516 19.22C151.076 19.86 151.622 20.58 152.156 21.38C152.302 21.6067 152.362 21.8 152.336 21.96C152.322 22.12 152.242 22.2467 152.096 22.34C151.936 22.4467 151.789 22.48 151.656 22.44C151.536 22.3867 151.422 22.2667 151.316 22.08C150.822 21.28 150.302 20.5667 149.756 19.94C149.209 19.3 148.636 18.7467 148.036 18.28C147.889 18.4 147.749 18.5267 147.616 18.66C147.482 18.7933 147.356 18.92 147.236 19.04L147.336 21.02C147.336 21.26 147.282 21.44 147.176 21.56C147.082 21.6667 146.949 21.72 146.776 21.72C146.589 21.72 146.449 21.6667 146.356 21.56C146.262 21.4533 146.216 21.28 146.216 21.04L145.876 13.58C145.836 13.4067 145.856 13.2733 145.936 13.18C146.029 13.0733 146.176 13.02 146.376 13.02C146.562 13.02 146.702 13.1 146.796 13.26C146.902 13.4067 146.969 13.62 146.996 13.9L147.156 17.64Z" fill="#477048"/>
</svg>
